<svg width="22" height="82" viewBox="0 0 22 82" fill="none" xmlns="http://www.w3.org/2000/svg">
<path d="M1.19162 42.5628C2.22423 43.0477 3.45167 42.5978 3.93318 41.5578L21.8062 2.95622C22.2877 1.91627 21.841 0.680099 20.8084 0.19516C19.7758 -0.28978 18.5483 0.160149 18.0668 1.2001L0.193779 39.8017C-0.287735 40.8417 0.159016 42.0779 1.19162 42.5628Z" fill="#BAC0C7"/>
<path d="M1.19162 39.4372C2.22423 38.9523 3.45167 39.4022 3.93318 40.4422L21.8062 79.0438C22.2877 80.0837 21.841 81.3199 20.8084 81.8048C19.7758 82.2898 18.5483 81.8399 18.0668 80.7999L0.193779 42.1983C-0.287735 41.1583 0.159016 39.9221 1.19162 39.4372Z" fill="#BAC0C7"/>
</svg>
