<svg width="147" height="26" viewBox="0 0 147 26" fill="none" xmlns="http://www.w3.org/2000/svg">
<g opacity="0.65">
<path fill-rule="evenodd" clip-rule="evenodd" d="M14.4118 25.9348C13.9764 25.9783 13.5391 26 13.1016 26C9.62684 26 6.2944 24.6304 3.83737 22.1924C1.38034 19.7544 0 16.4478 0 13C0 9.55219 1.38034 6.24558 3.83737 3.80761C6.2944 1.36964 9.62684 0 13.1016 0C13.5391 -1.24986e-08 13.9764 0.0217483 14.4118 0.0651633V3.96516C13.9772 3.91244 13.5393 3.89066 13.1016 3.9C10.6693 3.9 8.33656 4.85875 6.61664 6.56533C4.89672 8.27191 3.93048 10.5865 3.93048 13C3.93048 15.4135 4.89672 17.7281 6.61664 19.4347C8.33656 21.1413 10.6693 22.1 13.1016 22.1C13.5393 22.1093 13.9772 22.0876 14.4118 22.0348V25.9348Z" fill="white"/>
<path fill-rule="evenodd" clip-rule="evenodd" d="M28.8235 25.9348C28.3882 25.9783 27.9509 26 27.5134 26C24.0386 26 20.7062 24.6304 18.2491 22.1924C15.7921 19.7544 14.4118 16.4478 14.4118 13C14.4118 9.55219 15.7921 6.24558 18.2491 3.80761C20.7062 1.36964 24.0386 0 27.5134 0C27.9509 -1.24986e-08 28.3882 0.0217483 28.8235 0.0651633V3.96516C28.3889 3.91244 27.9511 3.89066 27.5134 3.9C25.4223 3.89983 23.394 4.6087 21.7646 5.9091C20.1352 7.20951 19.0026 9.02336 18.5545 11.05H26.2032V14.95H18.5545C19.0026 16.9766 20.1352 18.7905 21.7646 20.0909C23.394 21.3913 25.4223 22.1002 27.5134 22.1C27.9511 22.1093 28.3889 22.0876 28.8235 22.0348V25.9348Z" fill="white"/>
<path d="M107.368 0H102.083V17.875C103.672 28.6818 122.476 28.7239 124.44 17.875V0H119.156V17.875C118.172 23.33 108.197 23.3218 107.368 17.875V0Z" fill="white"/>
<path d="M108.994 0V4.0625H112.245V0H108.994Z" fill="white"/>
<path d="M114.278 0V4.0625H117.53V0H114.278Z" fill="white"/>
<path d="M131.35 26L121.798 0H127.489L134.399 20.9219L141.309 0H147L137.244 26H131.35Z" fill="white"/>
<path d="M83.5883 0H104.726V4.0625H83.5883V0Z" fill="white"/>
<path d="M91.3115 4.0625H97.0023V26H91.3115V4.0625Z" fill="white"/>
<path d="M49.0001 0H43.2354V26H49.0001V23.1111H46.1177V14.4444H49.0001V11.5556H46.1177V2.88889H49.0001V0Z" fill="white"/>
<path fill-rule="evenodd" clip-rule="evenodd" d="M60.5295 0H51.8824V26H54.7648V14.4444H57.6471V26H60.5295V0ZM54.7648 2.88889V11.5556H57.6471V2.88889H54.7648Z" fill="white"/>
<path d="M63.4118 0V26H69.1765V23.1111H66.2942V2.88889H69.1765V0H63.4118Z" fill="white"/>
</g>
</svg>
